<?xml version="1.0" standalone="no"?>
<!DOCTYPE svg PUBLIC "-//W3C//DTD SVG 20010904//EN"
 "http://www.w3.org/TR/2001/REC-SVG-20010904/DTD/svg10.dtd">
<svg version="1.0" xmlns="http://www.w3.org/2000/svg"
 width="462.000000pt" height="369.000000pt" viewBox="0 0 462.000000 369.000000"
 preserveAspectRatio="xMidYMid meet">

<g transform="translate(0.000000,369.000000) scale(0.100000,-0.100000)"
fill="#000000" stroke="none">
<path d="M3618 2893 c6 -2 18 -2 25 0 6 3 1 5 -13 5 -14 0 -19 -2 -12 -5z"/>
<path d="M3665 2870 c-150 -28 -213 -45 -208 -57 7 -18 0 -16 -47 8 -27 14
-44 18 -53 11 -6 -5 -29 -12 -50 -16 -33 -6 -36 -9 -27 -26 13 -24 7 -25 -26
-3 -15 9 -29 12 -32 7 -4 -5 -19 -15 -33 -22 -30 -16 -59 -61 -59 -92 0 -11
-4 -19 -8 -16 -12 7 -44 -51 -41 -77 1 -12 -3 -33 -8 -47 -6 -14 -13 -34 -16
-45 -2 -11 -5 0 -6 24 l-1 43 -37 -7 c-51 -9 -57 -16 -55 -71 3 -57 22 -100
68 -151 20 -21 33 -33 30 -26 -4 6 -2 14 4 18 6 4 10 -4 10 -19 0 -24 44 -66
68 -66 6 0 17 -9 25 -19 7 -11 42 -35 78 -53 59 -30 66 -37 84 -85 11 -29 22
-53 25 -53 3 0 12 23 20 52 17 58 14 56 218 133 93 35 156 96 263 258 109 163
127 233 83 319 -18 34 -81 78 -102 71 -8 -4 -13 -2 -10 3 7 11 -103 15 -157 4z
m0 -119 c-6 -5 -46 -11 -90 -14 -72 -5 -78 -4 -55 8 27 15 160 21 145 6z
m-449 -22 c3 -6 0 -15 -7 -20 -18 -11 -59 -12 -59 -1 0 8 36 30 52 31 4 1 10
-4 14 -10z m-76 -114 c0 -8 -6 -15 -14 -15 -17 0 -28 14 -19 24 12 12 33 6 33
-9z m-24 -96 c10 -17 -13 -36 -27 -22 -12 12 -4 33 11 33 5 0 12 -5 16 -11z
m274 -53 c0 -16 -14 -36 -26 -36 -14 0 -19 22 -7 33 7 8 33 10 33 3z"/>
<path d="M3268 2833 c7 -3 16 -2 19 1 4 3 -2 6 -13 5 -11 0 -14 -3 -6 -6z"/>
<path d="M3153 2784 l-28 -25 33 22 c17 13 32 24 32 26 0 8 -11 1 -37 -23z"/>
<path d="M2373 2768 c-12 -6 -32 -31 -45 -57 l-22 -46 -6 35 -6 35 -22 -42
c-14 -26 -22 -61 -22 -90 -1 -44 -2 -47 -15 -29 -14 19 -15 18 -15 -15 0 -19
7 -45 16 -57 8 -12 11 -22 5 -22 -5 0 -13 5 -16 10 -3 6 -11 10 -17 10 -7 0
-6 -5 2 -15 16 -19 3 -40 -15 -25 -11 10 -12 7 -2 -13 6 -13 23 -29 38 -36 28
-12 58 -71 60 -114 0 -33 36 -112 48 -109 6 1 11 -6 11 -16 0 -23 44 -49 95
-56 22 -3 33 -3 23 0 -17 5 -58 90 -58 119 0 13 9 8 33 -17 17 -19 26 -27 20
-18 -25 32 -15 40 29 24 45 -15 68 -12 110 17 14 11 31 19 36 19 12 0 75 -107
75 -127 0 -7 4 -13 9 -13 21 0 104 26 110 35 4 5 8 6 8 2 0 -8 -44 -72 -64
-92 -5 -5 0 7 12 28 12 20 20 37 18 37 -2 0 -21 -8 -42 -17 -31 -13 -70 -17
-185 -17 l-146 -1 38 -54 c22 -30 39 -62 39 -71 0 -25 58 -35 80 -15 9 8 31
15 49 15 18 0 41 4 51 10 14 7 27 5 50 -8 30 -17 31 -16 50 6 22 27 46 30 35
5 -19 -45 -33 -88 -29 -92 2 -2 12 3 22 12 10 10 22 14 26 10 4 -4 4 0 0 10
-4 11 -1 17 9 17 8 0 18 7 21 16 6 15 4 15 -11 3 -14 -11 -13 -9 2 13 26 35
43 20 27 -25 -7 -18 -12 -41 -12 -51 0 -9 -5 -14 -10 -11 -6 4 -10 3 -9 -2 3
-19 -2 -34 -9 -29 -10 6 -8 -51 1 -61 4 -3 7 5 7 18 0 14 7 34 15 45 8 10 15
31 15 47 0 15 5 27 10 27 6 0 10 13 10 28 0 20 12 40 41 67 41 40 43 35 7 -17
-24 -35 -23 -50 7 -76 16 -14 22 -28 18 -39 -5 -17 -4 -17 11 -2 17 15 19 31
14 76 -4 32 15 32 30 0 18 -38 0 -98 -39 -131 -17 -14 -24 -26 -17 -26 23 0
56 29 79 70 14 24 30 40 41 40 25 0 23 -6 -23 -66 -48 -62 -73 -80 -130 -93
-47 -11 -66 -6 -72 17 -3 12 -5 11 -6 -5 -1 -17 -6 -21 -23 -18 -27 5 -108 92
-108 117 0 23 19 33 26 14 3 -9 11 -16 17 -16 5 0 2 9 -8 20 -16 18 -20 19
-35 5 -15 -14 -18 -12 -29 26 -7 22 -14 39 -16 37 -3 -2 1 -21 7 -41 13 -44 5
-57 -21 -33 -18 16 -20 16 -40 -11 -15 -18 -24 -24 -27 -15 -3 6 -10 12 -14
12 -5 0 -21 11 -36 25 -28 26 -54 33 -54 15 0 -6 10 -15 23 -21 52 -23 66 -36
57 -47 -7 -8 -7 -9 1 -3 6 5 17 7 24 4 8 -2 21 7 30 21 16 25 18 25 41 8 55
-40 10 -113 -117 -185 -35 -20 -77 -48 -94 -61 -28 -24 -28 -26 -12 -44 16
-18 16 -20 2 -26 -9 -3 -13 -11 -10 -16 4 -6 1 -18 -6 -26 -10 -13 -15 -13
-34 0 -32 21 -40 7 -13 -22 16 -17 19 -26 11 -29 -7 -3 -13 -9 -13 -14 0 -6 4
-7 10 -4 5 3 28 -4 51 -15 22 -12 47 -19 55 -16 7 3 29 -1 49 -10 43 -17 80
-5 138 46 37 32 37 32 38 9 0 -13 3 -19 5 -12 4 8 17 6 47 -8 46 -20 88 -24
103 -9 5 5 25 11 44 12 30 3 35 0 43 -29 9 -31 27 -40 62 -33 6 1 7 -2 2 -6
-4 -4 0 -15 9 -25 16 -17 14 -21 -16 -56 -42 -48 -78 -73 -99 -66 -12 4 -13 3
-3 -5 8 -5 30 -5 59 2 40 9 48 15 62 48 9 20 22 39 29 40 11 2 9 9 -5 28 -20
26 -37 74 -23 65 4 -3 10 3 13 13 3 9 12 34 21 55 9 21 12 37 6 37 -5 0 -10
-6 -10 -14 0 -7 -10 -20 -23 -29 -20 -13 -26 -13 -50 -1 -32 17 -33 24 -7 66
11 18 20 27 20 19 0 -20 10 -8 15 18 2 11 7 27 12 34 4 6 -4 4 -17 -6 -14 -9
-40 -25 -57 -34 -31 -16 -34 -16 -54 3 -41 37 -43 52 -10 90 33 37 39 60 19
67 -7 2 5 12 27 23 22 10 43 20 47 22 6 3 -10 -64 -27 -113 -13 -40 56 50 85
110 16 33 43 70 60 83 l30 24 0 -39 c0 -22 -5 -44 -12 -51 -17 -17 -3 -25 22
-12 23 12 50 66 50 98 0 23 35 56 49 47 12 -7 4 -112 -9 -130 -8 -11 -18 -51
-24 -105 -3 -19 -9 -48 -16 -64 -10 -27 -9 -28 7 -15 10 8 24 20 31 27 7 6 17
12 22 12 11 0 4 -63 -15 -140 -8 -30 -13 -56 -11 -57 2 -2 12 20 24 49 13 35
42 76 84 119 64 68 92 86 104 68 4 -6 11 -6 20 2 11 9 15 8 20 -5 5 -12 10
-14 19 -6 6 5 15 7 18 3 13 -13 7 -23 -15 -23 -18 0 -20 -2 -8 -10 12 -7 12
-12 2 -22 -10 -10 -14 -10 -22 2 -5 8 -7 17 -4 21 2 4 1 10 -4 13 -4 2 -8 -49
-8 -114 0 -66 0 -118 1 -117 0 1 16 19 35 40 19 21 31 38 25 37 -24 -5 -45 1
-45 13 0 21 24 67 35 67 6 0 11 12 10 27 0 15 6 28 15 30 12 4 13 3 1 -5 -7
-5 -11 -15 -7 -20 10 -16 -4 -62 -19 -62 -19 0 -6 -47 13 -47 40 -2 82 19 88
44 11 43 -4 162 -26 206 -37 75 -46 83 -81 70 -37 -14 -57 -5 -102 44 -16 18
-32 32 -35 32 -20 -3 -25 2 -12 11 12 8 9 10 -13 10 -20 0 -32 8 -45 30 -13
22 -24 30 -45 30 -16 0 -26 -4 -22 -10 3 -5 1 -10 -4 -10 -6 0 -11 9 -11 21 0
12 -8 23 -19 26 -11 3 -22 12 -25 20 -4 10 -2 13 7 10 10 -4 14 4 15 27 1 23
-7 42 -28 65 -17 18 -30 36 -30 42 0 5 -4 9 -9 9 -5 0 -23 12 -40 28 -17 15
-65 39 -106 53 -75 26 -75 26 -81 5 -4 -12 -17 -36 -30 -55 -12 -18 -20 -39
-18 -46 3 -7 0 -16 -7 -21 -8 -5 -11 -2 -6 8 4 11 -2 17 -23 22 -17 3 -53 29
-84 61 -65 64 -77 99 -13 39 56 -54 97 -84 113 -84 13 0 64 77 64 97 0 5 -20
20 -45 32 -41 20 -64 40 -32 28 9 -3 12 13 12 63 0 59 -2 66 -17 62 -10 -2
-18 0 -18 5 0 6 -19 6 -50 -1 -46 -9 -51 -8 -75 14 -23 22 -24 26 -11 36 17
12 22 29 6 19 -16 -10 -12 5 10 32 26 33 25 41 -2 36 -26 -4 -81 35 -60 44 7
2 17 14 23 25 10 18 8 19 -19 13 -17 -3 -47 -3 -67 1 l-36 6 20 22 c12 12 21
25 21 27 0 14 -118 -5 -143 -23 -35 -24 -43 -18 -29 21 12 34 5 38 -35 19z
m24 -188 c-3 -12 0 -20 8 -20 7 0 18 -7 25 -15 16 -20 49 -19 72 2 23 20 28
16 21 -20 -4 -18 -10 -26 -19 -23 -8 3 -11 0 -7 -10 3 -7 0 -14 -6 -14 -6 0
-11 6 -11 13 0 8 -3 7 -10 -3 -8 -12 -14 -13 -42 -3 l-33 13 25 -20 c25 -20
25 -21 5 -35 -22 -18 -34 -16 -49 8 -8 12 -8 22 1 36 10 16 9 20 -4 25 -45 18
-50 -60 -5 -86 25 -15 30 -15 62 -1 27 13 160 26 160 17 0 -23 -16 -31 -49
-27 -21 3 -41 1 -44 -4 -3 -5 10 -7 29 -5 21 3 34 0 34 -7 0 -7 -4 -10 -9 -7
-4 3 -34 -1 -65 -9 -69 -18 -69 -18 -60 -2 4 7 3 9 -2 4 -5 -5 -9 -12 -8 -15
0 -4 -6 -13 -13 -21 -8 -7 -12 -20 -9 -27 11 -28 -13 -13 -34 22 -12 19 -25
33 -28 30 -2 -3 1 -12 8 -21 19 -23 -6 -19 -30 5 -11 11 -20 30 -20 43 0 18 2
19 10 7 5 -8 10 -24 10 -35 1 -19 1 -19 11 -2 7 12 7 29 1 50 -14 45 -12 77 5
118 20 48 81 82 70 39z m183 -85 c0 -7 -7 -18 -16 -25 -12 -11 -18 -10 -32 4
-16 16 -16 17 1 10 10 -3 17 -1 17 5 0 6 -5 11 -11 11 -8 0 -8 5 1 15 10 12
16 13 26 4 8 -6 14 -17 14 -24z m-46 -124 c3 -4 17 -6 31 -3 15 2 25 0 25 -7
0 -7 -5 -9 -12 -5 -7 5 -9 2 -5 -8 4 -13 -8 -19 -61 -32 -101 -23 -118 -27
-105 -20 7 3 10 11 7 18 -3 8 10 20 33 30 35 15 35 16 8 12 l-30 -5 30 14 c34
16 71 19 79 6z m272 -6 c10 -8 14 -15 8 -15 -5 0 -19 7 -30 15 -10 8 -14 15
-8 15 5 0 19 -7 30 -15z m-260 -70 c-11 -9 -40 -15 -65 -14 l-46 0 35 13 c19
8 49 14 65 14 28 1 29 1 11 -13z m299 -202 c-3 -16 -10 -32 -15 -37 -5 -5 -4
7 2 27 13 43 23 50 13 10z m260 -3 c-3 -4 1 -10 7 -13 7 -2 11 -7 8 -10 -9
-10 -42 21 -35 32 3 6 11 9 16 5 5 -3 7 -9 4 -14z m40 10 c3 -5 -1 -10 -10
-10 -9 0 -13 5 -10 10 3 6 8 10 10 10 2 0 7 -4 10 -10z m-415 -24 c0 -8 -4
-18 -10 -21 -5 -3 -10 3 -10 14 0 12 5 21 10 21 6 0 10 -6 10 -14z m-158 -13
c8 -10 18 -26 21 -36 6 -16 5 -16 -26 -1 -17 9 -43 25 -56 35 l-24 19 35 0
c21 0 41 -7 50 -17z m86 5 c-7 -19 -43 -21 -58 -3 -11 13 -8 15 25 15 25 0 35
-4 33 -12z m507 2 c3 -5 -1 -10 -9 -10 -8 0 -18 5 -21 10 -3 6 1 10 9 10 8 0
18 -4 21 -10z m15 -45 c0 -8 -4 -15 -9 -15 -5 0 -14 7 -21 15 -10 13 -9 15 9
15 12 0 21 -6 21 -15z m-36 -23 c-1 -7 -2 -22 -2 -34 -2 -21 -2 -21 -16 -3
-13 18 -14 18 -10 -10 2 -17 1 -24 -2 -17 -3 6 -10 10 -14 7 -9 -6 3 46 15 65
9 14 30 7 29 -8z m84 -25 c2 -12 -1 -15 -12 -11 -19 7 -22 38 -3 32 6 -3 13
-12 15 -21z m-402 -373 c-4 -10 21 -12 32 -4 1 2 8 3 15 4 13 1 65 -55 57 -63
-10 -11 -42 -7 -55 6 -8 7 -16 9 -20 4 -7 -12 -107 16 -117 33 -5 7 -8 8 -8 0
0 -6 -19 -19 -42 -30 -24 -10 -48 -25 -55 -34 -9 -12 -14 -13 -24 -2 -15 14
-33 16 -24 2 9 -14 -18 -12 -35 3 -8 6 -6 1 5 -12 11 -14 14 -21 8 -17 -7 4
-13 2 -13 -3 0 -14 -42 -14 -77 1 -20 8 -24 12 -12 15 11 3 15 11 12 23 -6 21
28 43 34 23 6 -17 74 1 148 40 62 33 94 40 80 16 -4 -5 -1 -9 4 -9 6 0 11 8
11 18 0 10 2 21 5 24 10 10 76 -26 71 -38z m764 -4 c0 -5 -2 -10 -4 -10 -3 0
-8 5 -11 10 -3 6 -1 10 4 10 6 0 11 -4 11 -10z m-83 -22 c-3 -8 -6 -5 -6 6 -1
11 2 17 5 13 3 -3 4 -12 1 -19z m60 -50 c-3 -7 -5 -2 -5 12 0 14 2 19 5 13 2
-7 2 -19 0 -25z m-557 -68 c20 -15 22 -20 11 -34 -12 -14 -16 -12 -42 15 -16
17 -29 35 -29 39 0 12 32 2 60 -20z"/>
<path d="M2390 2470 c0 -5 5 -10 11 -10 5 0 7 5 4 10 -3 6 -8 10 -11 10 -2 0
-4 -4 -4 -10z"/>
<path d="M2495 2360 c3 -5 12 -7 20 -3 21 7 19 13 -6 13 -11 0 -18 -4 -14 -10z"/>
<path d="M2856 1583 c-6 -14 -5 -15 5 -6 7 7 10 15 7 18 -3 3 -9 -2 -12 -12z"/>
<path d="M2517 1517 c-3 -8 1 -14 8 -14 7 0 11 6 8 14 -3 7 -6 13 -8 13 -2 0
-5 -6 -8 -13z"/>
<path d="M3093 2690 c-11 -16 -10 -18 2 -14 8 4 15 12 15 20 0 19 -3 18 -17
-6z"/>
<path d="M3060 2600 c0 -17 -7 -20 -44 -20 -25 0 -47 -3 -49 -7 -3 -5 21 -8
52 -8 56 0 57 0 53 28 -5 32 -12 36 -12 7z"/>
<path d="M1795 2373 c-16 -3 -34 -8 -40 -13 -5 -4 -27 -10 -47 -14 -25 -5 -54
-22 -83 -50 -25 -23 -43 -45 -40 -47 3 -3 -9 -3 -26 -1 -22 3 -34 0 -41 -12
-11 -20 -58 -22 -58 -2 0 8 -4 17 -8 20 -11 6 -132 -21 -146 -33 -15 -12 -137
-53 -143 -48 -10 11 90 58 166 77 23 6 41 13 39 15 -7 8 -122 -27 -168 -50
-55 -28 -138 -101 -163 -144 -24 -42 -14 -40 12 3 28 44 90 84 143 91 l43 6
-58 -32 c-110 -62 -159 -132 -156 -225 2 -58 14 -99 27 -97 15 4 15 -25 -2
-107 l-14 -65 -1 78 c0 43 -6 87 -11 97 -6 11 -14 52 -19 92 l-8 73 -4 -100
c-7 -178 -5 -196 25 -261 42 -93 89 -134 173 -150 37 -7 112 -13 166 -14 53 0
97 -2 97 -4 0 -2 -7 -20 -15 -39 -15 -35 -21 -138 -9 -150 3 -3 26 3 51 14 55
23 51 24 55 -5 3 -23 5 -23 38 -12 25 8 34 17 32 30 -2 11 1 15 7 11 6 -3 11
0 11 8 0 22 33 46 86 62 49 15 84 12 84 -6 0 -6 11 -2 25 8 13 10 23 23 20 30
-2 7 19 28 46 48 47 33 51 35 72 20 21 -15 77 -21 77 -8 0 4 -10 17 -22 30
-17 18 -19 26 -10 35 10 10 21 3 51 -30 21 -23 46 -42 55 -42 14 0 14 5 -4 37
-22 42 -26 98 -8 109 14 9 37 -22 45 -59 7 -32 42 -60 67 -52 9 3 23 7 31 10
13 4 14 9 4 27 -7 13 -14 38 -16 56 l-4 33 43 -31 c48 -35 62 -29 52 24 -5 27
-10 34 -17 27 -18 -18 -31 -13 -16 6 13 15 12 15 -8 5 -27 -15 -36 -15 -27 -1
4 7 0 9 -14 5 -11 -4 -23 -2 -27 4 -3 5 2 10 12 10 15 0 15 2 4 9 -8 5 -15 19
-16 30 -1 12 1 19 3 16 3 -3 16 5 28 16 30 28 54 12 49 -32 -2 -16 0 -29 5
-29 6 0 10 9 10 20 0 12 5 17 14 14 16 -6 27 28 15 47 -25 39 4 86 36 59 13
-11 15 -7 16 21 1 19 3 52 4 74 4 53 -20 126 -50 155 -14 13 -25 29 -25 36 0
7 -11 26 -25 41 l-24 28 -2 -45 c-1 -41 -2 -42 -8 -15 -19 78 -108 202 -166
231 -33 17 -54 20 -122 16 -46 -2 -80 -8 -77 -13 2 -5 0 -18 -6 -29 -13 -25
-80 -29 -80 -5 0 8 -3 15 -8 15 -12 0 -55 -32 -74 -55 -9 -11 -20 -17 -24 -12
-11 10 42 63 83 82 18 9 52 20 76 24 40 9 41 9 7 8 -19 0 -48 -2 -65 -4z
m-133 -85 c-23 -23 -45 -39 -48 -35 -9 8 60 77 77 77 6 0 -7 -19 -29 -42z
m348 -17 c0 -15 -16 -22 -34 -15 -25 9 -19 24 9 24 14 0 25 -4 25 -9z m-240
-31 c-19 -4 -50 -11 -67 -15 -21 -5 -33 -4 -33 3 0 16 19 20 80 20 50 0 52 -1
20 -8z m-450 -85 c0 -12 -21 -25 -41 -25 -14 0 -11 38 4 43 18 6 37 -3 37 -18z
m115 4 c0 -8 -10 -15 -22 -17 -25 -4 -33 22 -10 31 18 8 32 2 32 -14z m113 -2
c2 -12 -3 -17 -17 -17 -12 0 -21 6 -21 13 0 31 32 34 38 4z m147 -8 c9 -14 4
-18 -25 -21 -16 -2 -25 3 -28 15 -3 12 3 17 22 17 14 0 28 -5 31 -11z m565
-82 c-9 -7 -15 -19 -14 -27 0 -8 -1 -10 -3 -2 -3 6 -9 12 -16 12 -6 0 -2 7 9
15 23 17 46 20 24 2z m-773 -73 c5 -15 -28 -27 -40 -15 -5 5 -6 14 -2 21 8 13
37 9 42 -6z m128 -4 c0 -18 -33 -26 -47 -12 -6 6 -7 15 -3 22 10 16 50 8 50
-10z m129 14 c17 -7 22 -29 8 -38 -5 -3 -18 -2 -30 1 -24 6 -30 28 -9 36 6 3
13 6 14 6 1 1 8 -2 17 -5z m611 -83 c19 -11 19 -11 -5 -9 -16 2 -26 10 -28 23
-2 12 0 16 5 9 4 -6 17 -16 28 -23z m-171 -46 c-7 -16 -24 -21 -24 -6 0 8 7
13 27 20 1 1 0 -6 -3 -14z m-543 -10 c0 -6 -10 -12 -23 -13 -19 -4 -20 -2 -9
12 15 17 33 18 32 1z m149 6 c0 -6 -5 -13 -10 -16 -15 -9 -43 3 -35 15 8 13
45 13 45 1z m-250 -10 c0 -10 -30 -24 -37 -17 -3 3 -2 9 2 15 8 13 35 15 35 2z
m730 -31 c0 -5 -7 -10 -16 -10 -8 0 -12 5 -9 10 3 6 10 10 16 10 5 0 9 -4 9
-10z m-40 -9 c0 -5 8 -11 18 -13 14 -3 13 -5 -6 -10 -14 -4 -20 -2 -16 4 5 7
-2 9 -21 4 -25 -6 -27 -5 -16 8 15 17 41 22 41 7z m-73 -48 c-9 -9 -19 -14
-22 -11 -3 3 2 13 11 22 9 9 19 14 22 11 3 -3 -2 -13 -11 -22z m-982 -18 c0
-13 -8 -21 -24 -23 -32 -5 -48 12 -31 33 18 22 55 15 55 -10z m1063 13 c-6
-18 -28 -21 -28 -4 0 9 7 16 16 16 9 0 14 -5 12 -12z m-48 -13 c0 -8 -7 -15
-15 -15 -16 0 -20 12 -8 23 11 12 23 8 23 -8z m-850 -19 c0 -20 -19 -31 -32
-18 -6 6 -7 15 -4 21 10 16 36 13 36 -3z m780 -7 c-7 -11 -14 -18 -17 -15 -8
8 5 36 17 36 7 0 7 -6 0 -21z m48 -40 c-18 -12 -23 8 -6 28 12 15 13 15 16 -2
2 -10 -2 -21 -10 -26z m-457 16 c0 -6 -10 -12 -23 -13 -19 -4 -20 -2 -9 12 15
17 33 18 32 1z m415 -23 c-14 -14 -16 -14 -16 -1 0 20 23 44 29 28 2 -6 -4
-18 -13 -27z m-526 19 c0 -10 -30 -24 -37 -17 -3 3 -2 9 2 15 8 13 35 15 35 2z
m-100 -11 c0 -5 -9 -10 -21 -10 -11 0 -17 5 -14 10 3 6 13 10 21 10 8 0 14 -4
14 -10z m600 -12 c0 -16 -3 -19 -11 -11 -6 6 -8 16 -5 22 11 17 16 13 16 -11z
m-129 -45 c-8 -15 -10 -15 -11 -2 0 17 10 32 18 25 2 -3 -1 -13 -7 -23z m144
7 c-22 -24 -35 -26 -35 -4 0 10 6 14 15 10 8 -3 15 -1 15 4 0 6 5 10 12 10 6
0 3 -9 -7 -20z m-165 -4 c0 -8 -10 -13 -25 -13 -13 0 -22 4 -19 9 3 5 12 7 20
4 8 -3 14 -1 14 4 0 6 2 10 5 10 3 0 5 -6 5 -14z m-80 -46 c0 -13 -28 -25 -38
-16 -3 4 0 11 8 16 20 13 30 12 30 0z m35 0 c-3 -5 -10 -10 -16 -10 -5 0 -9 5
-9 10 0 6 7 10 16 10 8 0 12 -4 9 -10z m53 -2 c-3 -7 -13 -15 -24 -17 -16 -3
-17 -1 -5 13 16 19 34 21 29 4z m-148 -27 c0 -5 -9 -11 -21 -14 -12 -3 -18
-10 -14 -16 3 -6 2 -11 -4 -11 -19 0 -17 25 3 36 26 15 36 16 36 5z m110 -11
c0 -14 -24 -23 -47 -17 -15 3 -14 6 7 15 32 14 40 14 40 2z m-80 -30 c0 -5 -7
-10 -15 -10 -8 0 -15 5 -15 10 0 6 7 10 15 10 8 0 15 -4 15 -10z m-260 -145
c0 -8 -9 -15 -20 -15 -20 0 -26 11 -13 23 12 13 33 7 33 -8z m-60 -2 c0 -5
-14 -16 -30 -25 -17 -9 -30 -22 -30 -29 0 -8 4 -8 15 1 8 7 15 8 15 2 0 -5 -7
-15 -15 -22 -12 -10 -15 -7 -21 14 -6 27 2 50 16 41 4 -3 13 2 20 10 13 16 30
20 30 8z m90 -19 c0 -8 -4 -12 -10 -9 -5 3 -10 10 -10 16 0 5 5 9 10 9 6 0 10
-7 10 -16z m-66 -18 c-3 -8 -14 -16 -23 -19 -14 -3 -17 0 -14 14 3 11 14 19
24 19 12 0 16 -5 13 -14z m41 4 c3 -5 -1 -10 -9 -10 -9 0 -16 5 -16 10 0 6 4
10 9 10 6 0 13 -4 16 -10z m1 -44 c1 -8 -7 -16 -17 -19 -14 -4 -19 0 -19 13 0
10 6 20 13 23 15 5 20 1 23 -17z m-142 -11 c-4 -8 -8 -15 -10 -15 -2 0 -4 7
-4 15 0 8 4 15 10 15 5 0 7 -7 4 -15z"/>
<path d="M1988 2373 c7 -3 16 -2 19 1 4 3 -2 6 -13 5 -11 0 -14 -3 -6 -6z"/>
<path d="M1443 2273 c15 -2 39 -2 55 0 15 2 2 4 -28 4 -30 0 -43 -2 -27 -4z"/>
<path d="M1538 2263 c6 -2 18 -2 25 0 6 3 1 5 -13 5 -14 0 -19 -2 -12 -5z"/>
<path d="M2638 2216 c-3 -13 1 -39 8 -56 8 -18 11 -36 8 -41 -3 -5 6 -9 20 -9
14 0 26 2 26 4 0 2 -13 32 -29 65 -24 52 -29 58 -33 37z"/>
<path d="M2495 2150 c10 -11 20 -20 23 -20 3 0 -3 9 -13 20 -10 11 -20 20 -23
20 -3 0 3 -9 13 -20z"/>
<path d="M2543 2103 c15 -2 39 -2 55 0 15 2 2 4 -28 4 -30 0 -43 -2 -27 -4z"/>
<path d="M2819 1847 c6 -8 7 -18 3 -22 -4 -5 -1 -5 6 -1 10 6 10 11 1 22 -6 8
-14 14 -16 14 -3 0 0 -6 6 -13z"/>
<path d="M2499 1833 c-13 -15 -12 -15 9 -4 23 12 28 21 13 21 -5 0 -15 -7 -22
-17z"/>
<path d="M2498 1806 c-19 -14 -23 -26 -10 -26 4 0 13 9 20 20 14 23 13 24 -10
6z"/>
<path d="M2262 1731 c-11 -6 -10 -10 0 -19 11 -8 14 -7 14 9 0 10 0 19 -1 19
0 0 -6 -4 -13 -9z"/>
<path d="M2240 1706 c0 -2 8 -10 18 -17 15 -13 16 -12 3 4 -13 16 -21 21 -21
13z"/>
<path d="M2314 1405 c4 -11 10 -32 13 -47 3 -16 10 -28 15 -28 6 0 5 -7 -2
-15 -11 -13 -8 -13 17 1 18 11 37 15 49 10 16 -6 12 -11 -26 -29 -25 -12 -47
-19 -48 -14 -2 4 -8 4 -14 1 -5 -3 -16 2 -23 12 -13 17 -13 15 -3 -13 11 -29
10 -35 -10 -56 -29 -31 -28 -46 1 -18 21 19 25 20 37 6 7 -8 26 -15 44 -15
l31 0 -28 25 c-15 14 -27 30 -27 35 0 5 25 21 54 35 32 15 53 31 50 38 -3 8 8
12 33 12 20 0 38 5 40 11 2 7 -8 9 -27 6 -34 -5 -41 12 -12 35 13 11 13 13 2
10 -8 -2 -21 -16 -28 -30 -15 -30 -33 -34 -52 -12 -10 12 -10 18 1 33 7 9 1 6
-14 -7 -25 -23 -32 -21 -27 4 1 6 -2 7 -6 2 -4 -4 -16 1 -27 10 -20 17 -20 17
-13 -2z"/>
<path d="M2735 1410 c-4 -6 -10 -8 -14 -6 -4 3 -17 -3 -27 -12 -10 -10 -34
-28 -53 -41 -30 -22 -38 -23 -72 -14 -35 9 -40 8 -54 -13 -25 -38 -18 -50 39
-69 53 -18 56 -18 96 0 22 10 45 26 50 34 9 14 11 14 20 1 8 -13 10 -13 10 2
0 15 6 15 51 -7 42 -19 56 -21 75 -13 13 6 24 15 24 20 0 4 9 8 21 8 15 0 19
4 15 16 -3 9 -6 18 -6 20 0 2 -8 4 -17 4 -15 0 -14 2 3 15 18 14 17 15 -8 4
-22 -10 -34 -8 -73 12 -26 13 -50 29 -52 36 -6 16 -19 17 -28 3z"/>
<path d="M3197 1337 c-20 -40 -30 -63 -21 -52 19 24 67 116 62 120 -2 2 -20
-29 -41 -68z"/>
<path d="M1818 1314 l-28 -15 44 -62 c25 -34 49 -61 55 -60 6 2 8 -3 5 -11 -3
-8 21 -37 62 -72 37 -33 75 -66 85 -76 9 -9 20 -14 23 -10 4 3 13 -4 22 -16
22 -32 75 -42 224 -42 146 -1 156 -10 31 -32 -52 -9 -84 -9 -123 -1 -94 19
-99 -1 -7 -24 l83 -20 106 20 c58 11 151 29 208 42 56 12 102 19 102 16 0 -3
-21 -14 -46 -25 -25 -10 -43 -20 -41 -23 5 -5 112 30 180 59 26 12 50 18 54
15 9 -10 -39 -47 -70 -54 -17 -3 -24 -9 -17 -13 26 -16 -152 -67 -192 -54 -10
3 -41 -2 -69 -11 -36 -12 -63 -15 -93 -10 -22 4 -58 8 -78 7 -21 0 -38 4 -38
9 0 5 -25 9 -55 9 -83 0 -156 19 -190 49 -16 14 -24 19 -17 9 9 -12 10 -18 2
-23 -6 -4 -9 -13 -6 -21 3 -9 -16 -28 -52 -53 -31 -21 -87 -70 -125 -109 -53
-55 -64 -71 -51 -76 9 -4 23 -1 30 5 11 9 18 9 28 0 8 -7 25 -9 39 -6 14 4 28
2 31 -4 4 -6 22 -11 40 -11 24 0 38 -7 54 -30 13 -16 32 -30 43 -30 24 0 39
-36 39 -93 l0 -42 -31 33 c-27 29 -58 47 -94 56 -5 2 -18 6 -28 11 -9 4 -31 5
-47 3 -19 -3 -29 -1 -27 6 3 6 10 10 16 8 7 -1 10 2 6 8 -4 6 -13 7 -23 2 -9
-5 -27 -7 -40 -6 -16 1 -21 -3 -18 -13 5 -11 1 -11 -17 -2 -22 12 -22 12 -4
-9 18 -20 18 -20 -1 -15 -16 4 -24 -4 -41 -42 -22 -49 -21 -56 12 -92 22 -25
13 -29 -30 -12 -15 6 -30 11 -33 11 -3 1 -10 8 -16 16 -6 8 -19 12 -30 9 -17
-4 -16 -5 4 -6 12 0 22 -7 22 -14 0 -15 62 -37 102 -37 13 0 35 -11 48 -25 25
-27 78 -40 212 -54 94 -9 164 -40 194 -86 22 -33 30 -101 14 -120 -22 -26 6
-46 58 -43 l46 3 2 50 c1 29 -4 58 -13 71 -11 17 -11 27 -2 48 16 35 3 47 -74
70 -66 20 -128 70 -157 126 -19 38 -13 60 17 60 7 0 20 11 29 25 9 14 26 25
38 25 12 0 35 14 52 31 30 32 243 139 275 139 10 0 38 5 61 11 40 11 49 9 140
-29 112 -46 136 -61 152 -94 6 -13 22 -24 34 -26 12 -2 22 -8 22 -13 0 -15 46
-10 60 6 16 19 40 19 40 0 0 -10 10 -15 26 -15 34 0 103 -20 129 -37 29 -19
35 -16 35 17 0 19 5 30 14 30 8 0 14 11 14 25 0 24 -2 25 -18 10 -16 -14 -18
-14 -31 2 -13 16 -12 17 2 5 14 -10 18 -10 22 2 8 21 -25 31 -39 12 -6 -9 -14
-13 -17 -9 -4 3 -2 12 4 20 14 16 5 17 -21 1 -17 -11 -22 -10 -29 1 -8 12 -11
12 -24 -1 -9 -8 -38 -18 -64 -22 -27 -3 -59 -13 -71 -22 -22 -15 -23 -15 -16
13 10 40 32 71 57 79 12 3 29 12 37 19 19 15 78 27 84 17 4 -6 75 -8 95 -3 2
1 -25 34 -61 73 -82 93 -118 141 -118 158 0 11 3 11 12 2 19 -19 33 -14 15 6
-10 10 -17 23 -17 28 0 4 8 -3 17 -16 10 -14 18 -29 18 -35 0 -5 19 -11 43
-13 34 -3 56 4 107 32 34 19 74 36 86 39 13 2 8 3 -11 1 -118 -13 -134 -13
-110 -5 l25 9 -26 1 c-37 1 -82 39 -76 62 3 11 1 17 -4 13 -5 -3 -9 4 -9 16 0
12 -4 19 -10 15 -5 -3 -7 -13 -4 -23 5 -15 5 -15 -6 1 -6 9 -8 23 -4 30 4 6 4
9 0 6 -4 -4 -31 -1 -60 7 -51 13 -56 13 -110 -11 -31 -14 -63 -25 -72 -25 -8
0 -36 -10 -62 -21 -100 -46 -353 -63 -525 -35 -214 35 -274 77 -359 251 -28
58 -54 105 -57 104 -3 -1 -18 -8 -33 -15z m1229 -265 c32 -11 45 -40 33 -74
-6 -17 -8 -15 -14 9 -5 22 -10 25 -20 17 -11 -9 -14 -8 -12 6 1 16 -8 18 -72
17 -76 -2 -84 7 -22 24 47 14 71 14 107 1z m-210 -45 c-3 -3 -12 -4 -19 -1 -8
3 -5 6 6 6 11 1 17 -2 13 -5z m184 -16 c11 -21 11 -22 -4 -9 -10 7 -17 17 -17
22 0 15 9 10 21 -13z m-911 2 c0 -5 -2 -10 -4 -10 -3 0 -8 5 -11 10 -3 6 -1
10 4 10 6 0 11 -4 11 -10z m677 -16 c-16 -9 -31 -13 -34 -10 -3 3 5 10 18 15
37 15 47 12 16 -5z m264 -7 c-10 -9 -11 -8 -5 6 3 10 9 15 12 12 3 -3 0 -11
-7 -18z m97 -23 c2 -1 -8 -1 -21 0 -15 0 -23 6 -20 14 4 10 9 10 22 0 9 -7 17
-13 19 -14z m-560 -1 c-10 -2 -26 -2 -35 0 -10 3 -2 5 17 5 19 0 27 -2 18 -5z
m-70 -10 c-10 -2 -26 -2 -35 0 -10 3 -2 5 17 5 19 0 27 -2 18 -5z m307 -23
c-27 -12 -43 -12 -25 0 8 5 22 9 30 9 10 0 8 -3 -5 -9z m359 1 c3 -4 -7 -6
-22 -4 -21 4 -24 2 -12 -6 9 -7 10 -11 3 -11 -15 0 -25 15 -16 24 9 9 41 7 47
-3z m31 -21 c-3 -5 -12 -10 -18 -10 -7 0 -6 4 3 10 19 12 23 12 15 0z m-38
-16 c-3 -3 -12 -4 -19 -1 -8 3 -5 6 6 6 11 1 17 -2 13 -5z m-1377 -429 c0 -8
-9 -15 -20 -15 -20 0 -26 11 -13 23 12 13 33 7 33 -8z m180 -4 c0 -11 -26 -22
-34 -14 -12 12 -5 23 14 23 11 0 20 -4 20 -9z"/>
<path d="M2708 1249 c-11 -29 -113 -72 -156 -66 -20 3 -31 3 -24 0 6 -2 12
-11 12 -18 0 -12 74 -55 95 -55 5 0 28 9 51 21 40 19 45 19 73 4 37 -19 51
-13 106 46 22 24 31 36 19 26 -26 -22 -39 -21 -94 5 -25 12 -50 20 -57 19 -6
-1 -13 6 -15 16 -3 16 -4 16 -10 2z"/>
<path d="M3130 1230 c-12 -16 -19 -30 -16 -30 2 0 14 14 26 30 12 17 19 30 16
30 -2 0 -14 -13 -26 -30z"/>
<path d="M3040 1125 l-44 -45 49 1 c28 1 42 3 33 6 -25 6 -27 35 -5 61 36 39
13 24 -33 -23z"/>
<path d="M2881 1144 c0 -11 3 -14 6 -6 3 7 2 16 -1 19 -3 4 -6 -2 -5 -13z"/>
<path d="M2703 1115 c-3 -9 -3 -18 -1 -21 3 -3 8 4 11 16 6 23 -1 27 -10 5z"/>
<path d="M3454 1084 c-18 -15 -18 -15 3 -5 42 21 53 15 40 -21 -7 -18 -15 -35
-18 -38 -3 -3 -8 -13 -12 -23 -4 -10 -11 -16 -15 -13 -7 4 -32 -33 -32 -48 0
-1 19 0 43 3 37 5 42 9 45 34 3 28 6 29 48 25 49 -4 48 -4 33 23 -10 19 -11
20 -23 3 -7 -9 -19 -14 -27 -11 -11 4 -10 6 2 6 30 2 32 34 4 58 -31 27 -63
29 -91 7z m80 -38 c-10 -8 -21 -12 -24 -10 -5 6 21 24 34 24 6 0 1 -6 -10 -14z"/>
<path d="M3132 1066 c7 -8 15 -12 17 -11 5 6 -10 25 -20 25 -5 0 -4 -6 3 -14z"/>
<path d="M3349 1013 c-13 -16 -12 -17 4 -4 9 7 17 15 17 17 0 8 -8 3 -21 -13z"/>
<path d="M3432 1019 c-13 -5 -21 -12 -18 -17 2 -4 -3 -8 -12 -9 -51 -2 -91
-12 -127 -31 -50 -27 -44 -27 28 -2 31 11 72 20 92 20 19 0 35 5 35 11 0 6 7
9 15 5 10 -4 15 1 15 14 0 11 -1 20 -2 19 -2 0 -13 -4 -26 -10z"/>
<path d="M2088 923 c7 -3 16 -2 19 1 4 3 -2 6 -13 5 -11 0 -14 -3 -6 -6z"/>
<path d="M3400 905 c40 -29 37 -28 37 -11 0 8 -6 12 -12 10 -7 -3 -18 2 -25
11 -7 8 -17 15 -23 15 -6 0 4 -11 23 -25z"/>
<path d="M2508 873 c7 -3 16 -2 19 1 4 3 -2 6 -13 5 -11 0 -14 -3 -6 -6z"/>
<path d="M3288 641 c12 -10 22 -24 22 -30 0 -5 8 -14 17 -20 17 -9 16 -11 -1
-30 -16 -17 -17 -25 -7 -43 l11 -23 -6 23 c-4 15 1 30 12 44 18 19 18 20 1 33
-9 6 -17 17 -17 22 0 6 -12 18 -27 27 l-28 17 23 -20z"/>
<path d="M1925 561 c-3 -5 -1 -12 5 -16 5 -3 10 1 10 9 0 18 -6 21 -15 7z"/>
<path d="M3250 489 c0 -5 5 -7 10 -4 6 3 10 8 10 11 0 2 -4 4 -10 4 -5 0 -10
-5 -10 -11z"/>
<path d="M3292 484 c-5 -8 -22 -24 -38 -35 -16 -10 -22 -19 -14 -19 20 1 44
20 59 48 13 25 7 31 -7 6z"/>
<path d="M2828 396 c-35 -33 -90 -56 -134 -56 -22 0 -34 -17 -34 -49 0 -10 -9
-30 -20 -44 -11 -14 -20 -38 -20 -54 0 -16 -5 -34 -11 -40 -17 -17 -1 -33 31
-33 24 0 31 5 36 27 4 16 22 56 41 89 30 55 39 64 92 87 36 16 96 30 157 37
55 7 105 15 113 19 14 9 -38 24 -119 36 -25 3 -56 8 -70 10 -18 4 -35 -4 -62
-29z"/>
</g>
</svg>
